<svg xmlns="http://www.w3.org/2000/svg" width="65.931" height="37.3" viewBox="0 0 65.931 37.3">
  <path id="image" d="M59.266,27.608c1.525,3.066,3.02,6.063,4.6,9.245a27.958,27.958,0,0,1-3.221.447c-.3,0-.723-.516-.911-.872-1.239-2.4-2.429-4.832-3.66-7.3a15.175,15.175,0,0,1-12.951-1.4,14.5,14.5,0,0,1-6.344-8.032A14.966,14.966,0,0,1,63.262,6.4C67.177,11.9,67.515,21.5,59.266,27.608ZM39.561,14.949A11.445,11.445,0,1,0,50.966,3.515,11.488,11.488,0,0,0,39.561,14.949ZM14.933,7.967l-8.1,16.214C6.055,25.717,5.247,27.234,4.55,28.8a1.629,1.629,0,0,1-1.856,1.164c-.8-.08-1.618-.015-2.695-.015L14.954,0,29.9,29.913c-1.309,0-2.442.059-3.559-.041-.3-.026-.637-.5-.808-.836q-4.9-9.725-9.748-19.473c-.243-.485-.511-.958-.852-1.6Z"/>
</svg>
